<svg width="176" height="92" viewBox="0 0 176 92" fill="none" xmlns="http://www.w3.org/2000/svg">
<path d="M34 5.5C33.6841 5.5 21.7013 5.5 11.9978 5.5C8.13179 5.5 5 8.63401 5 12.5V49C5 52.866 8.13401 56 12 56H35C38.866 56 42 52.866 42 49V34.5C42 30.634 38.866 27.5 35 27.5H24.5M171 4V27.5M171 27.5V49.5C171 53.366 167.866 56.5 164 56.5H144.38C140.561 56.5 137.447 53.4391 137.381 49.6207L137.123 34.6207C137.055 30.708 140.209 27.5 144.122 27.5H171ZM102 56.5H120C123.866 56.5 127 53.366 127 49.5V34.5C127 30.634 123.866 27.5 120 27.5H102C98.134 27.5 95 30.634 95 34.5V49.5C95 53.366 98.134 56.5 102 56.5ZM60 56.5H78C81.866 56.5 85 53.366 85 49.5V34.5C85 30.634 81.866 27.5 78 27.5H60C56.134 27.5 53 30.634 53 34.5V49.5C53 53.366 56.134 56.5 60 56.5Z" stroke="#FAC891" stroke-width="7" stroke-linecap="round" stroke-linejoin="round"/>
<path d="M13 74C17 74 17 68.5 13 68.5H5V74M13 74C9.8 74 6.33333 74 5 74M13 74C20 74 20 80.5 14 80.5H5V74M31 81.5L35.125 76M52 81.5L47.875 76M35.125 76L41.5 67.5L47.875 76M35.125 76H47.875M67 81.5V76.5M67 67.5V76.5M82 67.5L71.6442 73.7135M67 76.5L71.6442 73.7135M82 81.5L71.6442 73.7135M110 81.5H98V74M110 67.5H98V74M98 74H110M126.5 81.5V68H137C143 68 142 75 137 75C133.4 75 132.167 75 132 75L141 81.5M155 67.5L163.5 75.5M163.5 75.5L172 67.5M163.5 75.5V81.5" stroke="#FAC891" stroke-width="2" stroke-linecap="square" stroke-linejoin="round"/>
<path d="M2 90L174 90" stroke="#FAC891" stroke-width="4" stroke-linecap="square" stroke-linejoin="round"/>
</svg>
